<svg id="_128-Arithmetic_and_Geometric_Sequence_Calculator" data-name="128-Arithmetic and Geometric Sequence Calculator" xmlns="http://www.w3.org/2000/svg" xmlns:xlink="http://www.w3.org/1999/xlink" viewBox="0 0 1920 1080"><defs><style>.cls-1{fill:url(#linear-gradient);}.cls-2{fill:url(#linear-gradient-2);}.cls-3{fill:url(#linear-gradient-3);}.cls-4{fill:url(#linear-gradient-4);}.cls-5{fill:url(#linear-gradient-5);}.cls-6{fill:url(#linear-gradient-6);}.cls-7{fill:url(#linear-gradient-7);}.cls-8{fill:url(#linear-gradient-8);}.cls-9{fill:url(#linear-gradient-9);}.cls-10{fill:url(#linear-gradient-10);}.cls-11{fill:url(#linear-gradient-11);}.cls-12{fill:url(#linear-gradient-12);}.cls-13{fill:url(#Degradado_sin_nombre_28);}.cls-14{fill:#865ff2;}.cls-15{fill:#4e1b9a;}.cls-16{fill:#773ceb;}.cls-17{fill:#ddd6ff;}.cls-18{fill:url(#linear-gradient-13);}.cls-19,.cls-57{opacity:0.42;}.cls-19{fill:url(#linear-gradient-14);}.cls-20{fill:url(#linear-gradient-15);}.cls-21{fill:url(#linear-gradient-16);}.cls-22{fill:url(#linear-gradient-17);}.cls-23{fill:url(#linear-gradient-18);}.cls-24{isolation:isolate;}.cls-25{fill:url(#linear-gradient-19);}.cls-26{opacity:0.58;}.cls-27{fill:#58ead3;}.cls-28{fill:#0e766d;}.cls-29{fill:#28d4bf;}.cls-30{fill:url(#linear-gradient-20);}.cls-31{fill:url(#linear-gradient-21);}.cls-32{fill:url(#linear-gradient-22);}.cls-33{fill:url(#linear-gradient-23);}.cls-34{fill:url(#linear-gradient-24);}.cls-35{fill:url(#linear-gradient-25);}.cls-36{fill:url(#linear-gradient-26);}.cls-37{fill:url(#linear-gradient-27);}.cls-38{fill:url(#linear-gradient-28);}.cls-39{fill:url(#linear-gradient-29);}.cls-40{fill:url(#linear-gradient-30);}.cls-41{fill:url(#linear-gradient-31);}.cls-42{fill:url(#linear-gradient-32);}.cls-43{fill:url(#linear-gradient-33);}.cls-44{fill:url(#linear-gradient-34);}.cls-45{fill:url(#linear-gradient-35);}.cls-46{fill:url(#linear-gradient-36);}.cls-47{fill:url(#linear-gradient-37);}.cls-48{fill:url(#linear-gradient-38);}.cls-49{fill:url(#linear-gradient-39);}.cls-50{fill:url(#linear-gradient-40);}.cls-51{fill:url(#linear-gradient-41);}.cls-52{fill:url(#linear-gradient-42);}.cls-53{fill:url(#linear-gradient-43);}.cls-54{fill:url(#linear-gradient-44);}.cls-55{fill:url(#linear-gradient-45);}.cls-56{stroke:#fff;stroke-width:1.19px;fill:url(#Degradado_sin_nombre_41);}.cls-56,.cls-62,.cls-63{stroke-miterlimit:10;}.cls-57{fill:url(#linear-gradient-46);}.cls-58{font-size:31px;}.cls-58,.cls-59,.cls-72{fill:#c9faf0;}.cls-58,.cls-59{font-family:OpenSans-SemiBold, Open Sans;font-weight:600;}.cls-59{font-size:44.85px;}.cls-60{fill:url(#Degradado_sin_nombre_28-2);}.cls-61{fill:url(#linear-gradient-47);}.cls-62,.cls-63{fill:none;}.cls-62{stroke:url(#linear-gradient-48);}.cls-63{stroke:url(#linear-gradient-49);}.cls-64{fill:url(#linear-gradient-50);}.cls-65{fill:url(#linear-gradient-51);}.cls-66{fill:url(#linear-gradient-52);}.cls-67,.cls-68,.cls-69,.cls-70,.cls-71{opacity:0.46;}.cls-67{fill:url(#linear-gradient-53);}.cls-68{fill:url(#linear-gradient-54);}.cls-69{fill:url(#linear-gradient-55);}.cls-70{fill:url(#linear-gradient-56);}.cls-71{fill:url(#linear-gradient-57);}.cls-73{opacity:0.3;}.cls-74{fill:#11b7a3;}.cls-75{fill:#f5f4fd;}.cls-76{fill:#0d7fc6;}.cls-77{fill:#eba298;}.cls-78{fill:#39393a;}.cls-79{fill:#2e2d44;}.cls-80{fill:#6c29d9;}.cls-81{fill:url(#linear-gradient-58);}.cls-82{fill:#303033;}.cls-83{fill:#fff;}</style><linearGradient id="linear-gradient" x1="960" y1="1356.66" x2="960" y2="301.91" gradientUnits="userSpaceOnUse"><stop offset="0.01" stop-color="#01011e"/><stop offset="0.18" stop-color="#070522"/><stop offset="0.24" stop-color="#0b0825"/><stop offset="0.35" stop-color="#130a33"/><stop offset="0.59" stop-color="#220e4d"/><stop offset="0.81" stop-color="#2c115c"/><stop offset="0.98" stop-color="#2f1262"/></linearGradient><linearGradient id="linear-gradient-2" x1="298.54" y1="907.93" x2="675.3" y2="907.93" gradientTransform="matrix(0.87, -0.5, 0, 1.15, -72.24, -385.39)" gradientUnits="userSpaceOnUse"><stop offset="0" stop-color="#00deed"/><stop offset="1" stop-color="#8d5afe"/></linearGradient><linearGradient id="linear-gradient-3" x1="672.72" y1="845.58" x2="909.32" y2="845.58" xlink:href="#linear-gradient-2"/><linearGradient id="linear-gradient-4" x1="672.72" y1="1007.6" x2="909.32" y2="1007.6" xlink:href="#linear-gradient-2"/><linearGradient id="linear-gradient-5" x1="184.26" y1="405.62" x2="717.12" y2="405.62" gradientTransform="matrix(1, 0, 0, 1, 0, 0)" xlink:href="#linear-gradient-2"/><linearGradient id="linear-gradient-6" x1="763.73" y1="1007.6" x2="766.31" y2="1007.6" xlink:href="#linear-gradient-2"/><linearGradient id="linear-gradient-7" x1="672.72" y1="991.18" x2="766.31" y2="991.18" xlink:href="#linear-gradient-2"/><linearGradient id="linear-gradient-8" x1="729.39" y1="967.69" x2="731.98" y2="967.69" xlink:href="#linear-gradient-2"/><linearGradient id="linear-gradient-9" x1="729.39" y1="973.01" x2="765.5" y2="973.01" xlink:href="#linear-gradient-2"/><linearGradient id="linear-gradient-10" x1="741.16" y1="981.87" x2="743.75" y2="981.87" xlink:href="#linear-gradient-2"/><linearGradient id="linear-gradient-11" x1="729.7" y1="982.45" x2="743.75" y2="982.45" xlink:href="#linear-gradient-2"/><linearGradient id="linear-gradient-12" x1="296.29" y1="907.93" x2="911.38" y2="907.93" xlink:href="#linear-gradient-2"/><linearGradient id="Degradado_sin_nombre_28" x1="783.08" y1="319.47" x2="879.45" y2="319.47" gradientUnits="userSpaceOnUse"><stop offset="0" stop-color="#00c99c"/><stop offset="1" stop-color="#004531"/></linearGradient><linearGradient id="linear-gradient-13" x1="831.28" y1="312.68" x2="831.28" y2="107.97" gradientUnits="userSpaceOnUse"><stop offset="0" stop-color="#865ff2"/><stop offset="0.03" stop-color="#8a6af2" stop-opacity="0.93"/><stop offset="0.13" stop-color="#968cf2" stop-opacity="0.72"/><stop offset="0.24" stop-color="#a2abf2" stop-opacity="0.52"/><stop offset="0.36" stop-color="#abc5f1" stop-opacity="0.36"/><stop offset="0.47" stop-color="#b3daf1" stop-opacity="0.23"/><stop offset="0.59" stop-color="#b8eaf1" stop-opacity="0.13"/><stop offset="0.71" stop-color="#bdf6f1" stop-opacity="0.06"/><stop offset="0.84" stop-color="#bffdf1" stop-opacity="0.01"/><stop offset="1" stop-color="#c0fff1" stop-opacity="0"/></linearGradient><linearGradient id="linear-gradient-14" x1="1776.31" y1="438.86" x2="1630.01" y2="289.15" gradientTransform="matrix(1, 0, 0, 1, 0, 0)" xlink:href="#linear-gradient-2"/><linearGradient id="linear-gradient-15" x1="1662.11" y1="404.25" x2="1670.98" y2="404.25" gradientTransform="matrix(1, 0, 0, 1, 0, 0)" xlink:href="#linear-gradient-2"/><linearGradient id="linear-gradient-16" x1="1662.11" y1="384.79" x2="1670.98" y2="384.79" gradientTransform="matrix(1, 0, 0, 1, 0, 0)" xlink:href="#linear-gradient-2"/><linearGradient id="linear-gradient-17" x1="1661.39" y1="365.33" x2="1670.26" y2="365.33" gradientTransform="matrix(1, 0, 0, 1, 0, 0)" xlink:href="#linear-gradient-2"/><linearGradient id="linear-gradient-18" x1="1661.39" y1="345.88" x2="1670.26" y2="345.88" gradientTransform="matrix(1, 0, 0, 1, 0, 0)" xlink:href="#linear-gradient-2"/><linearGradient id="linear-gradient-19" x1="815.52" y1="386.65" x2="815.52" y2="1054.91" gradientUnits="userSpaceOnUse"><stop offset="0.22" stop-color="#4d1e91"/><stop offset="0.4" stop-color="#4e1f94"/><stop offset="0.56" stop-color="#53209f"/><stop offset="0.7" stop-color="#5a23b0"/><stop offset="0.84" stop-color="#6526c8"/><stop offset="0.92" stop-color="#6c29d9"/></linearGradient><linearGradient id="linear-gradient-20" x1="1780.85" y1="-13.36" x2="1811.47" y2="-13.36" gradientTransform="matrix(0.87, 0.5, 0, 1.15, 35.09, -326.76)" xlink:href="#linear-gradient-2"/><linearGradient id="linear-gradient-21" x1="1778.64" y1="-13.36" x2="1813.69" y2="-13.36" gradientTransform="matrix(0.87, 0.5, 0, 1.15, 35.09, -326.76)" xlink:href="#linear-gradient-2"/><linearGradient id="linear-gradient-22" x1="1776.29" y1="-13.36" x2="1816.02" y2="-13.36" gradientTransform="matrix(0.87, 0.5, 0, 1.15, 35.09, -326.76)" xlink:href="#linear-gradient-2"/><linearGradient id="linear-gradient-23" x1="1773.82" y1="-13.36" x2="1818.49" y2="-13.36" gradientTransform="matrix(0.87, 0.5, 0, 1.15, 35.09, -326.76)" xlink:href="#linear-gradient-2"/><linearGradient id="linear-gradient-24" x1="1771.25" y1="-13.36" x2="1821.07" y2="-13.36" gradientTransform="matrix(0.87, 0.5, 0, 1.15, 35.09, -326.76)" xlink:href="#linear-gradient-2"/><linearGradient id="linear-gradient-25" x1="1768.61" y1="-13.36" x2="1823.71" y2="-13.36" gradientTransform="matrix(0.87, 0.5, 0, 1.15, 35.09, -326.76)" xlink:href="#linear-gradient-2"/><linearGradient id="linear-gradient-26" x1="1765.91" y1="-13.36" x2="1826.41" y2="-13.36" gradientTransform="matrix(0.87, 0.5, 0, 1.15, 35.09, -326.76)" xlink:href="#linear-gradient-2"/><linearGradient id="linear-gradient-27" x1="1763.19" y1="-13.36" x2="1829.13" y2="-13.36" gradientTransform="matrix(0.87, 0.5, 0, 1.15, 35.09, -326.76)" xlink:href="#linear-gradient-2"/><linearGradient id="linear-gradient-28" x1="1760.5" y1="-13.36" x2="1831.83" y2="-13.36" gradientTransform="matrix(0.87, 0.5, 0, 1.15, 35.09, -326.76)" xlink:href="#linear-gradient-2"/><linearGradient id="linear-gradient-29" x1="1757.87" y1="-13.36" x2="1834.46" y2="-13.36" gradientTransform="matrix(0.87, 0.5, 0, 1.15, 35.09, -326.76)" xlink:href="#linear-gradient-2"/><linearGradient id="linear-gradient-30" x1="1755.36" y1="-13.36" x2="1836.96" y2="-13.36" gradientTransform="matrix(0.87, 0.5, 0, 1.15, 35.09, -326.76)" xlink:href="#linear-gradient-2"/><linearGradient id="linear-gradient-31" x1="1753.03" y1="-13.36" x2="1839.29" y2="-13.36" gradientTransform="matrix(0.87, 0.5, 0, 1.15, 35.09, -326.76)" xlink:href="#linear-gradient-2"/><linearGradient id="linear-gradient-32" x1="1750.96" y1="-13.36" x2="1841.37" y2="-13.36" gradientTransform="matrix(0.87, 0.5, 0, 1.15, 35.09, -326.76)" xlink:href="#linear-gradient-2"/><linearGradient id="linear-gradient-33" x1="1749.21" y1="-13.36" x2="1843.11" y2="-13.36" gradientTransform="matrix(0.87, 0.5, 0, 1.15, 35.09, -326.76)" xlink:href="#linear-gradient-2"/><linearGradient id="linear-gradient-34" x1="1747.88" y1="-13.36" x2="1844.44" y2="-13.36" gradientTransform="matrix(0.87, 0.5, 0, 1.15, 35.09, -326.76)" xlink:href="#linear-gradient-2"/><linearGradient id="linear-gradient-35" x1="1747.07" y1="-13.36" x2="1845.25" y2="-13.36" gradientTransform="matrix(0.87, 0.5, 0, 1.15, 35.09, -326.76)" xlink:href="#linear-gradient-2"/><linearGradient id="linear-gradient-36" x1="1746.88" y1="-13.36" x2="1845.44" y2="-13.36" gradientTransform="matrix(0.87, 0.5, 0, 1.15, 35.09, -326.76)" xlink:href="#linear-gradient-2"/><linearGradient id="linear-gradient-37" x1="1738.24" y1="-13.36" x2="1854.08" y2="-13.36" gradientTransform="matrix(0.87, 0.5, 0, 1.15, 35.09, -326.76)" xlink:href="#linear-gradient-2"/><linearGradient id="linear-gradient-38" x1="1728.94" y1="-13.36" x2="1863.38" y2="-13.36" gradientTransform="matrix(0.87, 0.5, 0, 1.15, 35.09, -326.76)" xlink:href="#linear-gradient-2"/><linearGradient id="linear-gradient-39" x1="1719" y1="-13.36" x2="1873.32" y2="-13.36" gradientTransform="matrix(0.87, 0.5, 0, 1.15, 35.09, -326.76)" xlink:href="#linear-gradient-2"/><linearGradient id="linear-gradient-40" x1="1708.47" y1="-13.36" x2="1883.85" y2="-13.36" gradientTransform="matrix(0.87, 0.5, 0, 1.15, 35.09, -326.76)" xlink:href="#linear-gradient-2"/><linearGradient id="linear-gradient-41" x1="1697.41" y1="-13.36" x2="1894.91" y2="-13.36" gradientTransform="matrix(0.87, 0.5, 0, 1.15, 35.09, -326.76)" xlink:href="#linear-gradient-2"/><linearGradient id="linear-gradient-42" x1="1685.9" y1="-13.36" x2="1906.42" y2="-13.36" gradientTransform="matrix(0.87, 0.5, 0, 1.15, 35.09, -326.76)" xlink:href="#linear-gradient-2"/><linearGradient id="linear-gradient-43" x1="1674.02" y1="-13.36" x2="1918.3" y2="-13.36" gradientTransform="matrix(0.87, 0.5, 0, 1.15, 35.09, -326.76)" xlink:href="#linear-gradient-2"/><linearGradient id="linear-gradient-44" x1="1661.92" y1="-13.36" x2="1930.4" y2="-13.36" gradientTransform="matrix(0.87, 0.5, 0, 1.15, 35.09, -326.76)" xlink:href="#linear-gradient-2"/><linearGradient id="linear-gradient-45" x1="1649.73" y1="-13.35" x2="1942.59" y2="-13.35" gradientTransform="matrix(0.87, 0.5, 0, 1.15, 35.09, -326.76)" xlink:href="#linear-gradient-2"/><linearGradient id="Degradado_sin_nombre_41" x1="787.71" y1="545.66" x2="969.05" y2="545.66" gradientUnits="userSpaceOnUse"><stop offset="0" stop-color="#fff" stop-opacity="0.1"/><stop offset="1" stop-color="#fff" stop-opacity="0.2"/></linearGradient><linearGradient id="linear-gradient-46" x1="857.77" y1="367.74" x2="1382.44" y2="367.74" gradientTransform="matrix(1, 0, 0, 1, 0, 0)" xlink:href="#linear-gradient-2"/><linearGradient id="Degradado_sin_nombre_28-2" x1="1359.04" y1="648.32" x2="1455.4" y2="648.32" xlink:href="#Degradado_sin_nombre_28"/><linearGradient id="linear-gradient-47" x1="1407.24" y1="641.53" x2="1407.24" y2="436.82" xlink:href="#linear-gradient-13"/><linearGradient id="linear-gradient-48" x1="1402.42" y1="306.13" x2="1570.53" y2="403.19" gradientTransform="matrix(1, 0, 0, 1, 0, 0)" xlink:href="#linear-gradient-2"/><linearGradient id="linear-gradient-49" x1="1544.43" y1="334.04" x2="1607.58" y2="370.5" gradientTransform="matrix(1, 0, 0, 1, 0, 0)" xlink:href="#linear-gradient-2"/><linearGradient id="linear-gradient-50" x1="1670.49" y1="-102.9" x2="1680.12" y2="-97.34" gradientTransform="matrix(0.49, 0.87, -0.58, 1, 668.33, -995.26)" xlink:href="#linear-gradient-2"/><linearGradient id="linear-gradient-51" x1="1507.68" y1="-98.73" x2="1517.31" y2="-93.17" gradientTransform="matrix(0.49, 0.87, -0.58, 1, 610.29, -934.5)" xlink:href="#linear-gradient-2"/><linearGradient id="linear-gradient-52" x1="1768.38" y1="-178.47" x2="1778.01" y2="-172.91" gradientTransform="matrix(0.49, 0.87, -0.58, 1, 660.59, -1043.36)" xlink:href="#linear-gradient-2"/><linearGradient id="linear-gradient-53" x1="1626.19" y1="397.74" x2="1692.77" y2="397.74" gradientTransform="matrix(0.87, 0.5, 0, 1.15, 273.12, -972.64)" xlink:href="#linear-gradient-2"/><linearGradient id="linear-gradient-54" x1="1626.19" y1="419.92" x2="1692.77" y2="419.92" gradientTransform="matrix(0.87, 0.5, 0, 1.15, 273.12, -972.64)" xlink:href="#linear-gradient-2"/><linearGradient id="linear-gradient-55" x1="1626.19" y1="442.1" x2="1692.77" y2="442.1" gradientTransform="matrix(0.87, 0.5, 0, 1.15, 273.12, -972.64)" xlink:href="#linear-gradient-2"/><linearGradient id="linear-gradient-56" x1="1626.19" y1="464.28" x2="1692.77" y2="464.28" gradientTransform="matrix(0.87, 0.5, 0, 1.15, 273.12, -972.64)" xlink:href="#linear-gradient-2"/><linearGradient id="linear-gradient-57" x1="1626.19" y1="486.46" x2="1692.77" y2="486.46" gradientTransform="matrix(0.87, 0.5, 0, 1.15, 273.12, -972.64)" xlink:href="#linear-gradient-2"/><linearGradient id="linear-gradient-58" x1="794.25" y1="688.73" x2="767.36" y2="687.12" xlink:href="#linear-gradient-19"/></defs><rect class="cls-1" width="1920" height="1080"/><path class="cls-2" d="M511.47,514.35,187.42,701.45c-.62.35-1.12.07-1.12-.64V326.66a2.46,2.46,0,0,1,1.12-1.93L511.47,137.64c.62-.36,1.12-.07,1.12.63V512.43A2.45,2.45,0,0,1,511.47,514.35ZM188.54,698.24l321.81-185.8V140.85L188.54,326.65Z"/><path class="cls-3" d="M714.14,253.36l-202.67,117c-.62.36-1.12.07-1.12-.63V139.57a2.45,2.45,0,0,1,1.12-1.93l202.67-117c.61-.36,1.11-.07,1.11.64V251.43A2.5,2.5,0,0,1,714.14,253.36ZM512.59,367.15,713,251.44V23.84L512.59,139.56Z"/><path class="cls-4" d="M714.14,397.35l-202.67,117c-.62.36-1.12.08-1.12-.63v-144a2.45,2.45,0,0,1,1.12-1.93l202.67-117c.61-.36,1.11-.07,1.11.64v144A2.48,2.48,0,0,1,714.14,397.35ZM512.59,511.14,713,395.43V254L512.59,369.72Z"/><path class="cls-5" d="M187.42,703.58c-1.56.9-2.87.28-3-1.47-.07-1.26-1.75-31.47,6.63-82,7.72-46.59,25.87-119.79,68.46-203.92C298.11,340,344.6,274.77,397.73,222.42A556,556,0,0,1,511.47,135.5c31.45-18.16,79.76-34.49,121-25.89,24,5,43.25,17.87,57.24,38.25,16.43,23.92,25.64,58.35,27.38,102.34,0,1.5.54,35.49-14.74,79.71a266.76,266.76,0,0,1-37.64,71.82,262.69,262.69,0,0,1-74.36,67.69c-1.44.9-36.3,22.46-60.3,10-14.33-7.45-21.59-25.46-21.59-53.53v-.19A122,122,0,0,1,516,392.39c6.28-17,19.12-40.36,44.58-55.07.33-.18,8-4.58,15.79-4.85,7.38-.26,16.17,3.19,16.22,21.08.13,1.45.51,9.22-4.19,18.54a47.73,47.73,0,0,1-16.5,18.16,2.65,2.65,0,0,1-.39.23c-4.47,2.32-13.09,4.2-13.64-5.3a6.55,6.55,0,0,1,2.79-5.24c1.64-1.06,3.06-.46,3.17,1.36.32,5.56,6.71,2.79,7.82,2.26a35.32,35.32,0,0,0,12.08-13,25.6,25.6,0,0,0,2.92-13c0-.12,0-.26,0-.39,0-27.61-25-13.61-26.05-13-18,10.39-31.2,26.6-39.23,48.18a114,114,0,0,0-6.87,30.17c0,26.05,6.66,42.71,19.72,49.53,22.12,11.55,55.66-9.13,56-9.34A248,248,0,0,0,696.94,330.25c14.7-42.4,14.22-76,14.21-76.38-1.69-42.86-10.64-76.41-26.6-99.65C671,134.5,652.36,122,629.13,117.2c-40.15-8.37-87.1,7.5-117.66,25.14A546.73,546.73,0,0,0,399.73,227.7C347.64,279,302,343,264.14,417.85c-41.76,82.5-59.59,154.3-67.19,200-8.24,49.6-6.57,80.06-6.55,80.36a6.56,6.56,0,0,1-2.78,5.24Z"/><path class="cls-6" d="M590.29,468.85c-.62.36-1.12.07-1.12-.64v-144a2.45,2.45,0,0,1,1.12-1.92c.61-.36,1.11-.08,1.11.63v144A2.48,2.48,0,0,1,590.29,468.85Z"/><path class="cls-7" d="M590.29,377.9l-78.82,45.5c-.62.36-1.12.07-1.12-.63a2.45,2.45,0,0,1,1.12-1.93l78.82-45.51c.61-.35,1.11-.07,1.11.64A2.48,2.48,0,0,1,590.29,377.9Z"/><path class="cls-8" d="M560.55,393.85c-.61.36-1.11.08-1.11-.63V341.39a2.48,2.48,0,0,1,1.11-1.93c.62-.36,1.12-.07,1.12.64v51.83A2.45,2.45,0,0,1,560.55,393.85Z"/><path class="cls-9" d="M589.58,357.33l-29,16.76c-.61.36-1.11.07-1.11-.64a2.46,2.46,0,0,1,1.11-1.92l29-16.76c.62-.36,1.12-.07,1.12.63A2.46,2.46,0,0,1,589.58,357.33Z"/><path class="cls-10" d="M570.75,388.67c-.62.35-1.12.07-1.12-.64V367.57a2.46,2.46,0,0,1,1.12-1.93c.61-.36,1.12-.07,1.12.64v20.46A2.49,2.49,0,0,1,570.75,388.67Z"/><path class="cls-11" d="M570.75,379.1l-9.93,5.73c-.62.35-1.12.07-1.12-.64a2.46,2.46,0,0,1,1.12-1.93l9.93-5.73c.61-.36,1.12-.07,1.12.64A2.49,2.49,0,0,1,570.75,379.1Z"/><path class="cls-12" d="M714.06,399.53,187.34,703.63c-1.65,1-3,.19-3-1.7V327.78a6.56,6.56,0,0,1,3-5.14L714.06,18.54c1.64-.95,3-.19,3,1.7V394.39A6.58,6.58,0,0,1,714.06,399.53ZM190.32,695.07,711.07,394.41V27.1L190.32,327.76Z"/><polygon class="cls-13" points="783.08 319.47 831.28 291.64 879.45 319.49 831.28 347.3 783.08 319.47"/><polygon class="cls-14" points="831.28 347.3 831.28 438.69 879.45 410.88 879.45 319.49 831.28 347.3"/><polygon class="cls-15" points="831.28 347.3 783.08 319.47 783.08 410.86 831.28 438.69 831.28 347.3"/><polygon class="cls-16" points="783.08 315.51 831.28 287.68 879.45 315.53 831.28 343.34 783.08 315.51"/><polygon class="cls-17" points="831.28 343.34 831.28 347.3 879.45 319.48 879.45 315.53 831.28 343.34"/><polygon class="cls-17" points="831.28 343.34 783.08 315.51 783.08 319.46 831.28 347.3 831.28 343.34"/><polygon class="cls-14" points="799.38 306.94 831.27 288.53 863.15 306.96 831.27 325.36 799.38 306.94"/><polygon class="cls-17" points="804.76 306.94 831.27 291.64 857.77 306.96 831.27 322.25 804.76 306.94"/><polygon class="cls-14" points="831.27 325.36 831.27 334.57 863.15 316.16 863.15 306.96 831.27 325.36"/><polygon class="cls-15" points="831.27 325.36 799.38 306.94 799.38 316.15 831.27 334.57 831.27 325.36"/><path class="cls-14" d="M831.34,316c-8.19-.09-14.93-4.55-14.87-9.79l0-1.44,29.66.52,0,1.4C846.06,311.94,839.53,316.12,831.34,316Z"/><path class="cls-15" d="M831.38,295.66c8.19.09,14.78,4.41,14.72,9.65s-6.75,9.4-14.94,9.3-14.78-4.41-14.72-9.65S823.19,295.56,831.38,295.66Z"/><path class="cls-18" d="M831.34,312.68c-8.19-.1-14.93-4.56-14.87-9.79l0-194.92,29.66.52,0,194.87C846.06,308.6,839.53,312.77,831.34,312.68Z"/><polygon class="cls-19" points="1656.71 263.06 1749.74 317.1 1749.74 464.82 1656.71 411.04 1656.71 263.06"/><path class="cls-20" d="M1662.11,402.46c.09,3.25,2.14,6.68,4.59,7.66s4.36-.84,4.28-4.09-2.14-6.67-4.58-7.66S1662,399.22,1662.11,402.46Z"/><path class="cls-21" d="M1662.11,383c.09,3.24,2.14,6.67,4.59,7.65s4.36-.84,4.28-4.09-2.14-6.67-4.58-7.65S1662,379.76,1662.11,383Z"/><path class="cls-22" d="M1661.39,363.55c.08,3.24,2.14,6.67,4.59,7.66s4.36-.85,4.28-4.09-2.14-6.67-4.59-7.66S1661.31,360.31,1661.39,363.55Z"/><path class="cls-23" d="M1661.39,344.09c.08,3.25,2.14,6.67,4.59,7.66s4.36-.85,4.28-4.09-2.14-6.67-4.59-7.66S1661.31,340.85,1661.39,344.09Z"/><g class="cls-24"><polygon class="cls-25" points="1272.46 815.32 817.01 1080 358.57 815.32 814.02 550.65 1272.46 815.32"/></g><g class="cls-26"><g class="cls-24"><polygon class="cls-27" points="1272.46 763.86 1272.39 785.56 816.95 1050.24 817.01 1028.53 1272.46 763.86"/><polygon class="cls-28" points="817.01 1028.53 816.95 1050.24 358.51 785.57 358.57 763.86 817.01 1028.53"/><polygon class="cls-29" points="1272.46 763.86 817.01 1028.53 358.57 763.86 814.02 499.18 1272.46 763.86"/></g></g><path class="cls-30" d="M1599.55,576.26l0,0-21.78-17a1.41,1.41,0,0,1-.29-.38,1,1,0,0,1-.07-.43l3.84-22.75a.26.26,0,0,1,.18-.22.53.53,0,0,1,.34.1h0l21.78,17a1,1,0,0,1,.36.81L1600,576.11a.3.3,0,0,1-.18.22A.49.49,0,0,1,1599.55,576.26Zm-21.43-17.54,21.24,16.55,3.74-22.18-21.24-16.56Z"/><path class="cls-31" d="M1599.11,578.21l-.12-.09-23.22-20.54a.92.92,0,0,1-.32-.83l6.22-23a.3.3,0,0,1,.21-.2.7.7,0,0,1,.35.15h0l23.22,20.54a.93.93,0,0,1,.32.83l-6.22,23a.32.32,0,0,1-.21.2A.53.53,0,0,1,1599.11,578.21Zm-22.9-21.09,22.71,20.08,6.08-22.52-22.7-20.08Zm5.83-22.75Z"/><path class="cls-32" d="M1598.41,580.12a.58.58,0,0,1-.15-.11l-24.55-24.42a1.44,1.44,0,0,1-.27-.42.61.61,0,0,1,0-.42l8.93-23a.33.33,0,0,1,.24-.16.7.7,0,0,1,.36.19l24.55,24.42a1.44,1.44,0,0,1,.27.42.86.86,0,0,1,0,.42l-8.94,23a.3.3,0,0,1-.24.16A.4.4,0,0,1,1598.41,580.12Zm-24.22-24.92,24.07,23.94L1607,556.6,1583,532.66Z"/><path class="cls-33" d="M1597.49,582a1.28,1.28,0,0,1-.21-.16l-25.74-28.62a.87.87,0,0,1-.23-.86l12-22.58a.3.3,0,0,1,.27-.12.67.67,0,0,1,.36.22l25.74,28.62a1.66,1.66,0,0,1,.25.45.78.78,0,0,1,0,.41l-12,22.58a.3.3,0,0,1-.27.12A.42.42,0,0,1,1597.49,582Zm-25.42-29.11,25.29,28.12,11.79-22.18-25.29-28.12Z"/><path class="cls-34" d="M1596.26,583.89a.71.71,0,0,1-.24-.22l-26.74-33.13a.82.82,0,0,1-.18-.86L1584.54,528c.13-.19.43-.11.66.18l26.74,33.13a.79.79,0,0,1,.17.86l-15.43,21.73a.27.27,0,0,1-.3.09Zm-26.41-33.6,26.32,32.62,15.2-21.4-26.32-32.62Zm41.72,11.47h0Zm-26.73-33.12Z"/><path class="cls-35" d="M1594.73,585.63a1,1,0,0,1-.29-.27L1567,547.43a1.05,1.05,0,0,1-.2-.48.42.42,0,0,1,.08-.38l19.24-20.39c.16-.17.47-.06.69.25h0l27.49,37.94c.22.31.28.69.12.86l-19.25,20.39a.27.27,0,0,1-.32,0Zm.13-.71h0Zm-27.3-37.67,27.11,37.42,19-20.12-27.12-37.42Zm18.8-20.38Z"/><path class="cls-36" d="M1592.86,587.23a1.11,1.11,0,0,1-.33-.32l-27.94-43a1.13,1.13,0,0,1-.18-.5.38.38,0,0,1,.12-.35l23.44-18.5a.32.32,0,0,1,.35,0,1,1,0,0,1,.37.34l27.94,43a1.26,1.26,0,0,1,.18.5.38.38,0,0,1-.12.35l-23.44,18.5A.35.35,0,0,1,1592.86,587.23Zm-27.64-43.44,27.61,42.5L1616,568l-27.61-42.5Zm50.94,24.48h0Zm-27.94-43Z"/><path class="cls-37" d="M1590.61,588.63a1.07,1.07,0,0,1-.37-.39l-28-48.32a1,1,0,0,1-.15-.5.37.37,0,0,1,.15-.34l28-16c.2-.11.54.09.74.43l28,48.32a1,1,0,0,1,.15.5.37.37,0,0,1-.15.34l-28,15.95A.39.39,0,0,1,1590.61,588.63Zm-27.75-48.75,27.75,47.83,27.74-15.79-27.74-47.82Zm55.64,32.29h0Z"/><path class="cls-38" d="M1588,589.77a.05.05,0,0,1,0,0,1.09,1.09,0,0,1-.37-.42l-27.69-53.83c-.19-.37-.16-.74.06-.83l33-12.69a.43.43,0,0,1,.39.09,1.07,1.07,0,0,1,.36.42l27.7,53.83c.19.37.16.74-.06.83l-33,12.69A.39.39,0,0,1,1588,589.77Zm-27.43-54.26L1588,588.87l32.72-12.58-27.46-53.36Zm60.3,41h0Zm-27.7-53.83Z"/><path class="cls-39" d="M1584.86,590.6l-.1-.07a1.17,1.17,0,0,1-.35-.46l-26.87-59.49a1,1,0,0,1-.09-.52.31.31,0,0,1,.23-.28l38.37-8.65a.52.52,0,0,1,.41.14,1.17,1.17,0,0,1,.35.46l26.86,59.49a1,1,0,0,1,.1.53.31.31,0,0,1-.23.27l-38.37,8.65A.47.47,0,0,1,1584.86,590.6Zm-26.62-59.93,26.66,59.05,38.08-8.59-26.66-59Zm64.84,50.69h0Zm-26.86-59.5Z"/><path class="cls-40" d="M1581.29,591a.49.49,0,0,1-.14-.11,1.29,1.29,0,0,1-.35-.5l-25.45-65.24c-.16-.39-.07-.74.2-.76l44.09-3.73a.61.61,0,0,1,.43.19,1.29,1.29,0,0,1,.35.5l25.45,65.24c.16.39.06.74-.21.76l-44.09,3.73A.55.55,0,0,1,1581.29,591Zm-25.24-65.7,25.3,64.84,43.82-3.7-25.3-64.84Zm69.19,61.34h0Zm-25.45-65.24Zm0,0Z"/><path class="cls-41" d="M1577.23,591a1,1,0,0,1-.2-.15,1.32,1.32,0,0,1-.33-.54l-23.39-71c-.13-.42,0-.74.28-.73l50.16,2.15a.73.73,0,0,1,.44.23,1.43,1.43,0,0,1,.33.54l23.39,71c.13.42,0,.74-.29.73l-50.15-2.15A.46.46,0,0,1,1577.23,591ZM1554,519.52l23.26,70.63,49.9,2.14-23.27-70.64Zm73.22,72.94h0Zm-23.39-71h0Z"/><path class="cls-42" d="M1572.63,590.4a1.16,1.16,0,0,1-.25-.21,1.33,1.33,0,0,1-.31-.57L1551.5,513a.7.7,0,0,1,0-.52.31.31,0,0,1,.34-.16l56.52,9.05a.91.91,0,0,1,.46.29,1.59,1.59,0,0,1,.31.57l20.57,76.67c.11.42,0,.73-.36.68l-56.52-9A.6.6,0,0,1,1572.63,590.4Zm-20.41-77.19,20.49,76.36,56.29,9-20.49-76.36ZM1629,598.74h0Zm-20.57-76.67Z"/><path class="cls-43" d="M1567.49,589.16a1.4,1.4,0,0,1-.6-.87L1550,506.12c-.09-.43.11-.71.44-.62l63.15,17.07a1,1,0,0,1,.48.34,1.59,1.59,0,0,1,.29.6l16.92,82.17c.09.43-.11.71-.44.62l-63.16-17.07A.71.71,0,0,1,1567.49,589.16Zm-16.8-82.72,16.87,81.91,63,17-16.87-81.91Zm79.86,99.05h0Z"/><path class="cls-44" d="M1561.79,587.19a1.47,1.47,0,0,1-.64-1l-12.34-87.35c-.06-.44.17-.69.52-.56l70,26.26a1.39,1.39,0,0,1,.75,1h0l12.34,87.35a.6.6,0,0,1-.11.5.39.39,0,0,1-.42.06l-70-26.26Zm-12.25-88,12.31,87.16,69.83,26.2-12.31-87.16Z"/><path class="cls-45" d="M1555.5,584.36a1.26,1.26,0,0,1-.43-.43,1.44,1.44,0,0,1-.24-.65l-6.73-92.1c0-.44.24-.66.61-.48l77,36.71a1.18,1.18,0,0,1,.49.46,1.44,1.44,0,0,1,.24.65l6.73,92.1c0,.44-.24.66-.61.48l-77-36.71Zm70.17-56.12-76.9-36.68,6.78,92.06,76.9,36.62Z"/><path class="cls-46" d="M1632.59,629.06l-84-48.47a1.55,1.55,0,0,1-.7-1.21V483.14c0-.44.31-.62.7-.4l84,48.47a1.58,1.58,0,0,1,.7,1.21v96.24C1633.29,629.1,1633,629.28,1632.59,629.06Zm-84-145.49,0,96.23,83.94,48.43,0-96.2Z"/><path class="cls-47" d="M1632.09,637.35l-.06,0-90.92-61.61a1.59,1.59,0,0,1-.66-1.28l8-99.63c0-.43.38-.57.78-.3l90.92,61.61a1.59,1.59,0,0,1,.66,1.28h0l-8,99.63C1632.78,637.42,1632.46,637.57,1632.09,637.35Zm-83-162.07-8,99.63,90.92,61.61,8-99.63h0Zm91.28,61.86h0Z"/><path class="cls-48" d="M1630.84,645.87l-.13-.09L1533,569.63a1.85,1.85,0,0,1-.49-.64,1.32,1.32,0,0,1-.13-.72l17.23-102c.07-.43.47-.52.88-.19l97.69,76.14a1.85,1.85,0,0,1,.49.64,1.3,1.3,0,0,1,.12.72l-17.22,102.05a.44.44,0,0,1-.31.38A.68.68,0,0,1,1630.84,645.87Zm-80.46-179.1-17.26,102.05L1630.84,645l17.26-102h0a.07.07,0,0,0,0-.06Z"/><path class="cls-49" d="M1628.73,654.51a1,1,0,0,1-.2-.15l-104.15-92.12a1.85,1.85,0,0,1-.49-.7,1.23,1.23,0,0,1-.07-.74l27.9-103.28a.43.43,0,0,1,.37-.34.88.88,0,0,1,.6.26l104.15,92.12a1.72,1.72,0,0,1,.48.7,1.17,1.17,0,0,1,.08.74l-27.9,103.28a.43.43,0,0,1-.37.34A.7.7,0,0,1,1628.73,654.51Zm-76.24-196.39s-.06,0-.07,0l-27.91,103.28a.18.18,0,0,0,0,.13l104.15,92.12s.08,0,.09,0l27.9-103.28a.17.17,0,0,0,0-.13l-104.15-92.12Z"/><path class="cls-50" d="M1625.63,663.17a1.35,1.35,0,0,1-.28-.22L1515.22,553.42a1.62,1.62,0,0,1-.5-1.51l40.09-103.11a.42.42,0,0,1,.42-.29,1,1,0,0,1,.64.34L1666,558.39a1.62,1.62,0,0,1,.5,1.5h0L1626.41,663C1626.29,663.31,1626,663.37,1625.63,663.17Zm-70-213.71s-.09,0-.11,0L1515.4,552.59a.22.22,0,0,0,.06.19L1625.6,662.32c.05,0,.11,0,.13,0l40.09-103.11h0a.2.2,0,0,0-.07-.19L1555.62,449.49Zm110.57,110.09h0Z"/><path class="cls-51" d="M1621.42,671.72a1.3,1.3,0,0,1-.37-.31L1505.59,543a1.6,1.6,0,0,1-.42-1.57L1559,440.2c.2-.38.72-.3,1.16.19l115.45,128.37a2.14,2.14,0,0,1,.45.82,1,1,0,0,1,0,.75L1622.21,671.6C1622.06,671.88,1621.74,671.91,1621.42,671.72ZM1559.8,440.91c-.06,0-.11,0-.13,0L1505.83,542.2c0,.06,0,.18.07.26l115.46,128.38c.07.08.16.1.19,0l53.84-101.27h0a.31.31,0,0,0-.07-.26L1559.86,441Z"/><path class="cls-52" d="M1616,680a1.74,1.74,0,0,1-.46-.41L1495.58,531a1.53,1.53,0,0,1-.34-1.62l69.24-97.5a.48.48,0,0,1,.55-.17,1.46,1.46,0,0,1,.69.51l119.92,148.6a2.13,2.13,0,0,1,.43.88,1,1,0,0,1-.09.74l-69.24,97.5a.48.48,0,0,1-.55.17A1.22,1.22,0,0,1,1616,680Zm-50.67-247.35c-.07,0-.15,0-.18,0l-69.23,97.49c-.06.08,0,.23.07.34l119.92,148.6a.24.24,0,0,0,.14.11.11.11,0,0,0,.12,0l69.23-97.49h0a.21.21,0,0,0,0-.16.34.34,0,0,0-.09-.18l-119.92-148.6A.18.18,0,0,0,1565.28,432.65Z"/><path class="cls-53" d="M1609.09,687.82a1.68,1.68,0,0,1-.55-.52L1485.25,517.16a2.27,2.27,0,0,1-.4-.94.87.87,0,0,1,.16-.73l86.33-91.5a.55.55,0,0,1,.62-.09,1.66,1.66,0,0,1,.72.6L1696,594.64a2.27,2.27,0,0,1,.4.94.9.9,0,0,1-.16.74l-86.33,91.49a.55.55,0,0,1-.62.09Zm-37-263,0,0a.13.13,0,0,0-.16,0L1485.6,516.3a.26.26,0,0,0,0,.18.56.56,0,0,0,.1.24L1609,686.86a.36.36,0,0,0,.18.15.13.13,0,0,0,.16,0l86.33-91.49h0a.26.26,0,0,0,0-.18.72.72,0,0,0-.1-.24L1572.27,424.94A.55.55,0,0,0,1572.13,424.81Z"/><path class="cls-54" d="M1600.69,695a1.92,1.92,0,0,1-.65-.65l-125.32-192.9c-.43-.66-.49-1.43-.13-1.71l105.16-83c.36-.29,1,0,1.43.68l125.32,192.9c.43.66.49,1.43.13,1.71h0L1601.47,695a.63.63,0,0,1-.69,0Zm-20.16-277.35a.2.2,0,0,0-.23,0l-105.16,82.95c-.1.08-.08.3,0,.49L1600.5,694a.69.69,0,0,0,.22.2.2.2,0,0,0,.2,0l105.15-82.95c.11-.08.09-.3,0-.49l-125.33-192.9A.55.55,0,0,0,1580.53,417.64Zm125.82,194h0Z"/><path class="cls-55" d="M1590.61,701.27a2.1,2.1,0,0,1-.76-.8L1464.11,483.73c-.42-.72-.42-1.49,0-1.73l125.74-71.55c.41-.23,1.11.18,1.52.88l125.74,216.74c.42.72.42,1.49,0,1.73l-.26-.44.26.44-125.74,71.55A.76.76,0,0,1,1590.61,701.27Zm0-289.91a.26.26,0,0,0-.25,0l-125.74,71.55a.26.26,0,0,0-.1.22.74.74,0,0,0,.1.34l125.74,216.74c.13.23.36.36.5.29l125.74-71.55a.26.26,0,0,0,.1-.22.74.74,0,0,0-.1-.34L1590.86,411.62A.7.7,0,0,0,1590.61,411.36Z"/><polygon class="cls-56" points="787.71 560.59 969.05 665.08 969.05 530.72 787.71 426.24 787.71 560.59"/><path class="cls-57" d="M857.77,16.33V417.68a1.28,1.28,0,0,0,.62,1.09l522.16,301.47a1.25,1.25,0,0,0,1.26,0,1.26,1.26,0,0,0,.63-1.09V317.79a1.25,1.25,0,0,0-.63-1.08L859.65,15.24a1.24,1.24,0,0,0-1.26,0A1.26,1.26,0,0,0,857.77,16.33Zm2.51,203,41,23.67v47.06l-41-23.67Zm519.65,297.12-41-23.67V445.75l41,23.67ZM947.3,219.65l41,23.67v47.06l-41-23.67Zm-2.51,45.61-41-23.68V194.53l41,23.67Zm46-20.49,41,23.67V315.5l-41-23.67Zm130.54,75.37,41,23.67v47.06l-41-23.67Zm-2.51,45.61-41-23.68V295l41,23.67Zm46-20.49,41,23.67V416l-41-23.67Zm41,73.63V466l-41-23.68V395.21Zm-43.51,21.93-41-23.67V370.09l41,23.68Zm-43.51-25.12-41-23.67V345l41,23.67Zm-43.52-25.12-41-23.67V319.85l41,23.67Zm-41-73.63V269.89l41,23.68v47.06Zm-43.51-75.07V194.82l41,23.67v47.06Zm43.51-21.94,41,23.67v47.06l-41-23.67Zm43.51,25.12,41,23.67v47.06l-41-23.67Zm43.52,25.12,41,23.68v47.06l-41-23.68Zm43.51,25.13,41,23.67V366l-41-23.68Zm43.51,25.12,41,23.67v47.06l-41-23.67Zm41,73.63v47.05l-41-23.67V370.38Zm2.5,1.45,41,23.67v47.06l-41-23.68Zm43.52,25.12,41,23.67v47.06l-41-23.67Zm84.52,145.81-41-23.68V495.7l41,23.68Zm-43.52-25.13-41-23.67V470.58l41,23.68Zm-43.51-25.12-41-23.67V445.46l41,23.67Zm-43.51-25.12-41-23.67V420.34l41,23.67Zm0,2.89V541l-41-23.67V470.29Zm-43.52,21.94-41-23.67V445.17l41,23.67Zm-43.51-25.12-41-23.67V420.05l41,23.67Zm-43.51-25.12-41-23.68V394.92l41,23.68Zm-43.52-25.13-41-23.67V369.8l41,23.68Zm-43.51-25.12-41-23.67V344.68l41,23.67Zm-41-73.63v-47l41,23.67v47.06Zm-2.51-1.44-41-23.68V269.6l41,23.68Zm-43.52-25.13-41-23.67V244.48l41,23.67ZM860.28,169.4l41,23.68v47.06l-41-23.68Zm0-49.95,41,23.67v47.06l-41-23.67Zm43.51,25.12,41,23.68V215.3l-41-23.67Zm43.51,25.12,41,23.68v47.06l-41-23.68Zm0-2.89V119.74l41,23.67v47.06Zm43.52-21.94,41,23.68v47.05l-41-23.67ZM1034.33,170l41,23.68v47.06l-41-23.68Zm43.51,25.13,41,23.67v47.06l-41-23.67Zm43.52,25.12,41,23.67V291l-41-23.67Zm43.51,25.12,41,23.67v47.06l-41-23.67Zm43.51,25.12,41,23.68v47.06l-41-23.68Zm43.51,25.13,41,23.67v47.06l-41-23.68Zm41,73.62v47.06l-41-23.67V345.55Zm2.51,1.45,41,23.68v47.06l-41-23.68Zm43.51,25.13,41,23.67v47.06l-41-23.67Zm41,220.59-41-23.67V545.66l41,23.67Zm-43.52-25.12-41-23.67V520.54l41,23.67Zm-43.51-25.12-41-23.68V495.41l41,23.68Zm0,2.89V616.1l-41-23.67V545.37ZM1249.39,591l-41-23.67V520.25l41,23.67Zm-43.52-25.12-41-23.68V495.12l41,23.68Zm-43.51-25.13-41-23.67V470l41,23.68Zm-43.51-25.12-41-23.67V444.88l41,23.67Zm-43.52-25.12-41-23.67V419.76l41,23.67Zm-43.51-25.12-41-23.68V394.63l41,23.68Zm-43.51-25.13-41-23.67V369.51l41,23.68Zm-41-73.62V319.56l41,23.67v47.06Zm-2.51-1.45-41-23.68V294.44l41,23.67Zm-43.51-25.12-41-23.68V269.31l41,23.68Zm-41-270.55,41,23.67v47.06l-41-23.68Zm43.51,25.12,41,23.67v47.06l-41-23.67Zm0-2.9V43.62l41.07,23.71a1.44,1.44,0,0,0-.07.36v47.7Zm43.51-23,41.08,23.72a1,1,0,0,0-.07.35v47.71l-41-23.68Zm43.52,25.12,41.07,23.72a1.36,1.36,0,0,0-.07.35v47.71l-41-23.67ZM1034.33,119l41.07,23.71a1.45,1.45,0,0,0-.07.35v47.71l-41-23.67Zm43.51,25.12,41.08,23.71a1.1,1.1,0,0,0-.07.36v47.7l-41-23.67Zm43.52,25.12L1162.43,193a1.28,1.28,0,0,0-.07.35V241l-41-23.68Zm43.51,25.12,41.07,23.72a1.36,1.36,0,0,0-.07.35v47.71l-41-23.67Zm43.51,25.13,41.08,23.71a1.09,1.09,0,0,0-.07.35v47.71l-41-23.67Zm43.51,25.12L1293,268.31a1.44,1.44,0,0,0-.07.36v47.7l-41-23.67Zm43.52,25.12,41.07,23.72a1.28,1.28,0,0,0-.07.35V341.5l-41-23.68Zm41,74.67v47.06l-41-23.67V320.72Zm2.51,1.45,41,23.67v47.06l-41-23.67Zm41,320.51-41-23.68V595.61l41,23.68Zm-43.52-25.13-41-23.67V570.49l41,23.67Zm0,2.9v47.74l-41.08-23.72a1.42,1.42,0,0,0,.08-.41V620.45Zm-43.51,22.61L1251.81,643a1.1,1.1,0,0,0,.08-.4V595.32l41,23.68Zm-43.51-25.12-41.09-23.72a1.36,1.36,0,0,0,.08-.41V570.2l41,23.67Zm-43.52-25.12-41.08-23.72a1.42,1.42,0,0,0,.08-.41V545.08l41,23.67Zm-43.51-25.12-41.09-23.72a1.16,1.16,0,0,0,.09-.41V520l41,23.67Zm-43.51-25.13-41.09-23.72a1.35,1.35,0,0,0,.08-.4V494.83l41,23.68Zm-43.52-25.12-41.08-23.72a1.36,1.36,0,0,0,.08-.41V469.71l41,23.68ZM1031.82,516l-41.09-23.72a1.12,1.12,0,0,0,.09-.41V444.59l41,23.67Zm-43.51-25.12-41.09-23.72a1.42,1.42,0,0,0,.08-.41V419.47l41,23.67Zm-43.52-25.13L903.71,442a1.35,1.35,0,0,0,.08-.4V394.34l41,23.68Zm-41-74.3V344.39l41,23.67v47.06ZM901.28,390l-41-23.67V319.27l41,23.67Zm-41-371.5,41.07,23.71a1.45,1.45,0,0,0-.07.35V90.27l-41-23.67Zm519.65,300v48.1l-41-23.68v-48.1Zm0,398.46-41.09-23.72a1.42,1.42,0,0,0,.08-.41V645.57l41,23.67ZM860.28,417V369.22l41,23.68v47.73Z"/><text class="cls-58" transform="matrix(0.88, 0.51, 0, 1, 887.7, 150.55)">0, 1, 1, 2, 3, 5, 8, 13, 21, 34, 55, 89, 144<tspan x="0" y="37.28">233, 377, 610, 987, 1597, 2584, 4181,</tspan><tspan x="0" y="74.55">6765, 10946, 17711, 28657, 46368, ...</tspan></text><text class="cls-59" transform="matrix(0.89, 0.51, 0, 1, 1011.34, 67.25)">Fibonacci Sequence</text><polygon class="cls-60" points="1359.04 648.32 1407.23 620.5 1455.4 648.34 1407.23 676.15 1359.04 648.32"/><polygon class="cls-14" points="1407.23 676.15 1407.23 767.55 1455.4 739.73 1455.4 648.34 1407.23 676.15"/><polygon class="cls-15" points="1407.23 676.15 1359.04 648.32 1359.04 739.71 1407.23 767.55 1407.23 676.15"/><polygon class="cls-16" points="1359.04 644.36 1407.23 616.53 1455.4 644.38 1407.23 672.19 1359.04 644.36"/><polygon class="cls-17" points="1407.23 672.19 1407.23 676.15 1455.4 648.33 1455.4 644.38 1407.23 672.19"/><polygon class="cls-17" points="1407.23 672.19 1359.04 644.36 1359.04 648.31 1407.23 676.15 1407.23 672.19"/><polygon class="cls-14" points="1375.33 635.8 1407.23 617.38 1439.1 635.81 1407.23 654.21 1375.33 635.8"/><polygon class="cls-17" points="1380.71 635.8 1407.23 620.49 1433.72 635.81 1407.23 651.1 1380.71 635.8"/><polygon class="cls-14" points="1407.23 654.21 1407.23 663.42 1439.1 645.01 1439.1 635.81 1407.23 654.21"/><polygon class="cls-15" points="1407.23 654.21 1375.33 635.8 1375.33 645 1407.23 663.42 1407.23 654.21"/><path class="cls-14" d="M1407.29,644.87c-8.19-.09-14.93-4.55-14.87-9.79l0-1.44,29.66.52,0,1.4C1422,640.79,1415.49,645,1407.29,644.87Z"/><path class="cls-15" d="M1407.33,624.51c8.19.09,14.79,4.41,14.73,9.65s-6.75,9.4-15,9.3-14.78-4.41-14.72-9.65S1399.14,624.41,1407.33,624.51Z"/><path class="cls-61" d="M1407.29,641.53c-8.19-.1-14.93-4.56-14.87-9.79l0-194.92,29.66.52,0,194.87C1422,637.45,1415.49,641.62,1407.29,641.53Z"/><polyline class="cls-62" points="1555.27 428.75 1555.27 360.31 1415.11 284.19"/><polyline class="cls-63" points="1573.69 417.6 1573.69 285.09 1636.32 320.72"/><ellipse class="cls-64" cx="1555.27" cy="361.08" rx="4.05" ry="7.02" transform="translate(30.78 835.61) rotate(-30.36)"/><ellipse class="cls-65" cx="1414.28" cy="284.49" rx="4.05" ry="7.02" transform="translate(50.16 753.85) rotate(-30.36)"/><ellipse class="cls-66" cx="1640.05" cy="322.77" rx="4.05" ry="7.02" transform="matrix(0.86, -0.51, 0.51, 0.86, 61.77, 873.21)"/><polygon class="cls-67" points="1739.1 341.98 1681.44 308.69 1681.44 290.76 1739.1 324.05 1739.1 341.98"/><polygon class="cls-68" points="1739.1 367.59 1681.44 334.3 1681.44 316.37 1739.1 349.66 1739.1 367.59"/><polygon class="cls-69" points="1739.1 393.2 1681.44 359.91 1681.44 341.98 1739.1 375.27 1739.1 393.2"/><polygon class="cls-70" points="1739.1 418.81 1681.44 385.52 1681.44 367.59 1739.1 400.88 1739.1 418.81"/><polygon class="cls-71" points="1739.1 444.42 1681.44 411.13 1681.44 393.2 1739.1 426.49 1739.1 444.42"/><polygon class="cls-72" points="823.16 490.98 814.95 486.24 814.95 476.83 823.16 481.57 823.16 490.98"/><polygon class="cls-72" points="842.71 502.26 834.5 497.53 834.5 488.12 842.71 492.86 842.71 502.26"/><polygon class="cls-72" points="862.26 513.55 854.05 508.81 854.05 499.4 862.26 504.14 862.26 513.55"/><polygon class="cls-72" points="881.81 524.84 873.6 520.1 873.6 510.69 881.81 515.43 881.81 524.84"/><polygon class="cls-72" points="901.35 536.12 893.15 531.38 893.15 521.98 901.35 526.72 901.35 536.12"/><polygon class="cls-72" points="920.9 547.41 912.7 542.67 912.7 533.26 920.9 538 920.9 547.41"/><polygon class="cls-72" points="940.45 558.7 932.24 553.96 932.24 544.55 940.45 549.29 940.45 558.7"/><polygon class="cls-72" points="823.16 510.62 814.95 505.88 814.95 496.47 823.16 501.21 823.16 510.62"/><polygon class="cls-72" points="842.71 521.9 834.5 517.16 834.5 507.76 842.71 512.5 842.71 521.9"/><polygon class="cls-72" points="862.26 533.19 854.05 528.45 854.05 519.04 862.26 523.78 862.26 533.19"/><polygon class="cls-72" points="881.81 544.48 873.6 539.74 873.6 530.33 881.81 535.07 881.81 544.48"/><polygon class="cls-72" points="901.35 555.76 893.15 551.02 893.15 541.62 901.35 546.35 901.35 555.76"/><polygon class="cls-72" points="920.9 567.05 912.7 562.31 912.7 552.9 920.9 557.64 920.9 567.05"/><polygon class="cls-72" points="940.45 578.33 932.24 573.6 932.24 564.19 940.45 568.93 940.45 578.33"/><polygon class="cls-72" points="823.16 530.25 814.95 525.52 814.95 516.11 823.16 520.85 823.16 530.25"/><polygon class="cls-72" points="842.71 541.54 834.5 536.8 834.5 527.39 842.71 532.13 842.71 541.54"/><polygon class="cls-72" points="862.26 552.83 854.05 548.09 854.05 538.68 862.26 543.42 862.26 552.83"/><polygon class="cls-72" points="881.81 564.11 873.6 559.38 873.6 549.97 881.81 554.71 881.81 564.11"/><polygon class="cls-72" points="901.35 575.4 893.15 570.66 893.15 561.25 901.35 565.99 901.35 575.4"/><polygon class="cls-72" points="920.9 586.69 912.7 581.95 912.7 572.54 920.9 577.28 920.9 586.69"/><polygon class="cls-72" points="940.45 597.97 932.24 593.23 932.24 583.83 940.45 588.56 940.45 597.97"/><polygon class="cls-72" points="823.16 549.89 814.95 545.15 814.95 535.75 823.16 540.49 823.16 549.89"/><polygon class="cls-72" points="842.71 561.18 834.5 556.44 834.5 547.03 842.71 551.77 842.71 561.18"/><polygon class="cls-72" points="862.26 572.47 854.05 567.73 854.05 558.32 862.26 563.06 862.26 572.47"/><polygon class="cls-72" points="881.81 583.75 873.6 579.01 873.6 569.61 881.81 574.34 881.81 583.75"/><polygon class="cls-72" points="901.35 595.04 893.15 590.3 893.15 580.89 901.35 585.63 901.35 595.04"/><polygon class="cls-72" points="920.9 606.33 912.7 601.59 912.7 592.18 920.9 596.92 920.9 606.33"/><polygon class="cls-72" points="940.45 617.61 932.24 612.87 932.24 603.46 940.45 608.2 940.45 617.61"/><polygon class="cls-73" points="705.03 781.9 784.25 827.45 862.82 781.9 846.47 772.45 894.38 746.4 814.98 699.76 689.25 772.79 705.03 781.9"/><polygon class="cls-28" points="878.6 744.04 788.32 690.53 793.75 621.26 878.6 653.94 878.6 744.04"/><polygon class="cls-74" points="805.27 612.39 805.27 698.62 775.81 715.85 775.81 629.8 805.27 612.39"/><polygon class="cls-75" points="761.87 636.73 835.38 678.99 878.38 653.94 805.19 611.75 761.87 636.73"/><path class="cls-74" d="M779.53,633.45l-3-1.73c-.24-.14-.21-.39.07-.55l3.56-2a1,1,0,0,1,.94,0l3,1.74c.24.14.21.38-.07.54l-3.55,2A1,1,0,0,1,779.53,633.45Z"/><path class="cls-76" d="M784.17,636.14l-3-1.74c-.24-.14-.21-.38.07-.55l3.56-2.05a1,1,0,0,1,.94,0l3,1.74c.24.14.21.39-.07.55l-3.55,2.05A1.06,1.06,0,0,1,784.17,636.14Z"/><path class="cls-74" d="M788.82,638.82l-3-1.74c-.24-.14-.21-.38.07-.54l3.55-2a1.07,1.07,0,0,1,1,0l3,1.74c.24.14.21.38-.07.54l-3.55,2A1.06,1.06,0,0,1,788.82,638.82Z"/><path class="cls-74" d="M795.25,636.61l-3-1.74c-.24-.14-.21-.39.07-.55l3-1.72a1.07,1.07,0,0,1,1,0l3,1.74c.24.14.21.38-.07.54l-3,1.73A1.1,1.1,0,0,1,795.25,636.61Z"/><path class="cls-74" d="M799.9,639.29l-3-1.74c-.24-.14-.21-.38.07-.54l3-1.73a1.06,1.06,0,0,1,.95,0l3,1.73c.24.14.21.39-.07.55l-3,1.72A1.07,1.07,0,0,1,799.9,639.29Z"/><path class="cls-74" d="M804.55,642l-3-1.73c-.24-.14-.21-.39.07-.55l3-1.72a1.06,1.06,0,0,1,.95,0l3,1.74c.24.14.21.38-.07.54l-3,1.72A1,1,0,0,1,804.55,642Z"/><path class="cls-74" d="M809.2,644.66l-3-1.74c-.24-.14-.21-.38.07-.54l3-1.73a1,1,0,0,1,.94,0l3,1.74c.25.14.22.39-.06.55l-3,1.72A1,1,0,0,1,809.2,644.66Z"/><path class="cls-74" d="M813.85,647.34l-3-1.74c-.24-.14-.21-.38.07-.54l3-1.72a1,1,0,0,1,.94,0l3,1.74c.25.14.22.38-.06.54l-3,1.72A1,1,0,0,1,813.85,647.34Z"/><path class="cls-74" d="M818.5,650l-3-1.74c-.24-.14-.21-.39.07-.55l3-1.72a1,1,0,0,1,.94,0l3,1.74c.24.14.21.38-.06.54l-3,1.73A1,1,0,0,1,818.5,650Z"/><path class="cls-74" d="M823.15,652.71l-3-1.74c-.24-.14-.21-.38.07-.54l3-1.72a1,1,0,0,1,.94,0l3,1.73c.24.14.21.39-.07.55l-3,1.72A1,1,0,0,1,823.15,652.71Z"/><path class="cls-76" d="M827.8,655.39l-3-1.73c-.24-.14-.21-.39.06-.55l3-1.72a1,1,0,0,1,.94,0l3,1.74c.24.14.21.38-.07.54l-3,1.73A1,1,0,0,1,827.8,655.39Z"/><path class="cls-76" d="M832.45,658.08l-3-1.74c-.25-.14-.22-.38.06-.54l3-1.73a1.08,1.08,0,0,1,.94,0l3,1.74c.24.14.21.39-.07.55l-3,1.72A1,1,0,0,1,832.45,658.08Z"/><path class="cls-74" d="M837.1,660.76l-3-1.74c-.25-.14-.22-.38.06-.54l3-1.72a1,1,0,0,1,.94,0l3,1.74c.24.14.21.38-.07.54l-3,1.72A1,1,0,0,1,837.1,660.76Z"/><path class="cls-74" d="M802.1,635.33l-3-1.73c-.24-.14-.21-.39.07-.55l3-1.72a1.07,1.07,0,0,1,1,0l3,1.74c.24.14.21.38-.07.54l-3,1.73A1.06,1.06,0,0,1,802.1,635.33Z"/><path class="cls-74" d="M797.39,632.61l-3-1.74c-.24-.14-.21-.38.07-.54l3-1.72a1,1,0,0,1,.94,0l3,1.73c.24.14.21.39-.07.55l-3,1.72A1,1,0,0,1,797.39,632.61Z"/><path class="cls-74" d="M792.66,629.88l-6.48-3.74c-.25-.14-.22-.39.06-.55l3-1.72a1,1,0,0,1,.94,0l6.48,3.75c.24.14.21.38-.06.54l-3,1.72A1,1,0,0,1,792.66,629.88Z"/><path class="cls-74" d="M796,626.56l-5.26-3c-.24-.14-.21-.39.07-.55l3-1.72a1,1,0,0,1,.94,0l5.27,3c.24.14.21.38-.07.54l-3,1.72A1.07,1.07,0,0,1,796,626.56Z"/><path class="cls-74" d="M806.75,638l-3-1.74c-.24-.14-.21-.38.07-.54l3-1.73a1.1,1.1,0,0,1,1,0l3,1.74c.24.14.21.39-.07.55l-3,1.72A1.07,1.07,0,0,1,806.75,638Z"/><path class="cls-74" d="M811.4,640.7l-3-1.74c-.24-.13-.21-.38.07-.54l3-1.72a1.06,1.06,0,0,1,.95,0l3,1.74c.24.14.21.38-.07.54l-3,1.72A1.07,1.07,0,0,1,811.4,640.7Z"/><path class="cls-74" d="M816.05,643.39l-3-1.74c-.24-.14-.21-.38.07-.55l3-1.72a1,1,0,0,1,.94,0l3,1.74c.25.14.22.38-.06.55l-3,1.72A1,1,0,0,1,816.05,643.39Z"/><path class="cls-74" d="M820.7,646.07l-3-1.74c-.24-.14-.21-.38.07-.54l3-1.72a1,1,0,0,1,.94,0l3,1.74c.25.13.22.38-.06.54l-3,1.72A1,1,0,0,1,820.7,646.07Z"/><path class="cls-74" d="M825.35,648.76l-3-1.74c-.24-.14-.21-.39.07-.55l3-1.72a1,1,0,0,1,.94,0l3,1.74c.24.14.21.38-.06.54l-3,1.73A1.08,1.08,0,0,1,825.35,648.76Z"/><path class="cls-74" d="M830,651.44l-3-1.74c-.24-.14-.21-.38.07-.54l3-1.73a1,1,0,0,1,.94,0l3,1.73c.24.14.21.39-.07.55l-3,1.72A1,1,0,0,1,830,651.44Z"/><path class="cls-76" d="M834.65,654.12l-3-1.73c-.24-.14-.21-.39.06-.55l3-1.72a1,1,0,0,1,.94,0l3,1.74c.24.14.21.38-.07.54l-3,1.72A1,1,0,0,1,834.65,654.12Z"/><path class="cls-74" d="M839.3,656.81l-3-1.74c-.25-.14-.22-.38.06-.54l3-1.73a1,1,0,0,1,.94,0l3,1.74c.24.14.21.39-.07.55l-3,1.72A1,1,0,0,1,839.3,656.81Z"/><path class="cls-74" d="M844,659.49l-3-1.74c-.25-.14-.22-.38.06-.54l3-1.72a1,1,0,0,1,.94,0l3,1.74c.24.14.21.38-.07.54l-3,1.72A1,1,0,0,1,844,659.49Z"/><path class="cls-74" d="M852.21,664.26l-6.57-3.79c-.24-.14-.21-.38.07-.54l3-1.73a1.06,1.06,0,0,1,.95,0L856.2,662c.25.14.22.38-.06.54l-3,1.72A1,1,0,0,1,852.21,664.26Z"/><path class="cls-74" d="M861.26,659l-5.54-3.2c-.24-.14-.21-.39.07-.55l3-1.72a1,1,0,0,1,.94,0l5.55,3.2c.24.14.21.39-.07.55l-3,1.72A1.07,1.07,0,0,1,861.26,659Z"/><path class="cls-74" d="M814.89,637.49l-3-1.73c-.24-.14-.21-.39.07-.55l3-1.72a1.07,1.07,0,0,1,1,0l3,1.74c.24.14.21.38-.07.54l-3,1.72A1,1,0,0,1,814.89,637.49Z"/><path class="cls-74" d="M810.13,634.74l-3-1.74c-.24-.14-.21-.38.07-.54l3-1.72a1,1,0,0,1,.94,0l3,1.74c.25.14.21.38-.06.54l-3,1.72A1,1,0,0,1,810.13,634.74Z"/><path class="cls-74" d="M805.37,632l-3-1.74c-.24-.14-.21-.38.07-.54l3-1.72a1,1,0,0,1,.94,0l3,1.74c.24.14.21.38-.07.54l-3,1.72A1,1,0,0,1,805.37,632Z"/><path class="cls-74" d="M800.6,629.24l-3-1.74c-.24-.14-.21-.38.07-.54l3-1.72a1,1,0,0,1,.94,0l3,1.73c.25.14.22.39-.06.55l-3,1.72A1,1,0,0,1,800.6,629.24Z"/><path class="cls-74" d="M819.54,640.18l-3-1.74c-.24-.14-.21-.38.07-.55l3-1.72a1.07,1.07,0,0,1,.95,0l3,1.74c.24.14.21.39-.07.55l-3,1.72A1.06,1.06,0,0,1,819.54,640.18Z"/><path class="cls-74" d="M824.19,642.86l-3-1.74c-.24-.14-.21-.38.07-.54l3-1.72a1.06,1.06,0,0,1,.95,0l3,1.74c.24.14.21.38-.07.54l-3,1.72A1.07,1.07,0,0,1,824.19,642.86Z"/><path class="cls-74" d="M828.84,645.55l-3-1.74c-.24-.14-.21-.39.07-.55l3-1.72a1.06,1.06,0,0,1,1,0l3,1.74c.24.14.21.38-.07.54l-3,1.73A1.07,1.07,0,0,1,828.84,645.55Z"/><path class="cls-74" d="M833.49,648.23l-3-1.74c-.24-.14-.21-.38.07-.54l3-1.72a1,1,0,0,1,.94,0l3,1.73c.25.14.22.39-.06.55l-3,1.72A1,1,0,0,1,833.49,648.23Z"/><path class="cls-76" d="M838.14,650.91l-3-1.73c-.24-.14-.21-.39.07-.55l3-1.72a1,1,0,0,1,.94,0l3,1.74c.25.14.22.38-.06.54l-3,1.73A1,1,0,0,1,838.14,650.91Z"/><path class="cls-74" d="M842.79,653.6l-3-1.74c-.24-.14-.21-.38.07-.54l3-1.73a1,1,0,0,1,.94,0l3,1.74c.24.14.21.39-.06.55l-3,1.72A1,1,0,0,1,842.79,653.6Z"/><path class="cls-74" d="M847.44,656.28l-3-1.74c-.24-.14-.21-.38.07-.54l3-1.72a1,1,0,0,1,.94,0l3,1.74c.24.14.21.38-.07.54l-3,1.72A1,1,0,0,1,847.44,656.28Z"/><path class="cls-74" d="M852.09,659l-3-1.74c-.24-.14-.21-.38.06-.55l3-1.72a1,1,0,0,1,.94,0l3,1.74c.24.14.21.38-.07.55l-3,1.72A1,1,0,0,1,852.09,659Z"/><path class="cls-74" d="M856.74,661.65l-3-1.74c-.25-.14-.22-.38.06-.54l3-1.72a1,1,0,0,1,.94,0l3,1.74c.24.13.21.38-.07.54l-3,1.72A1,1,0,0,1,856.74,661.65Z"/><path class="cls-74" d="M812.45,630.85l-3-1.73c-.25-.14-.22-.39.06-.55l3-1.72a1,1,0,0,1,.94,0l3,1.74c.24.14.21.38-.07.54l-3,1.73A1,1,0,0,1,812.45,630.85Z"/><path class="cls-74" d="M807.82,628.18l-3-1.73c-.24-.14-.21-.39.07-.55l3-1.72a1,1,0,0,1,.94,0l3,1.74c.25.14.22.38-.06.54l-3,1.72A1,1,0,0,1,807.82,628.18Z"/><path class="cls-74" d="M803.19,625.51l-3-1.74c-.24-.14-.21-.38.07-.54l3-1.72a1.07,1.07,0,0,1,.95,0l3,1.74c.24.14.21.38-.07.54l-3,1.72A1.06,1.06,0,0,1,803.19,625.51Z"/><path class="cls-74" d="M798.57,622.84l-3-1.74c-.24-.14-.21-.38.07-.54l3-1.72a1,1,0,0,1,.94,0l3,1.74c.24.14.21.38-.07.54l-3,1.72A1,1,0,0,1,798.57,622.84Z"/><path class="cls-74" d="M803.33,620.1l-3-1.74c-.24-.14-.21-.39.07-.55l1-.57a1,1,0,0,1,.94,0l3,1.74c.24.14.21.39-.07.55l-1,.57A1.08,1.08,0,0,1,803.33,620.1Z"/><path class="cls-74" d="M809.36,623.58l-3-1.74c-.24-.14-.21-.38.07-.54l1-.57a1,1,0,0,1,.94,0l3,1.74c.24.14.21.38-.07.54l-1,.57A1.07,1.07,0,0,1,809.36,623.58Z"/><path class="cls-74" d="M814,626.24l-3-1.74c-.24-.14-.21-.38.07-.54l1-.57a1.06,1.06,0,0,1,1,0l3,1.74c.24.14.21.38-.07.54l-1,.57A1,1,0,0,1,814,626.24Z"/><path class="cls-74" d="M818.58,628.9l-3-1.74c-.25-.14-.22-.38.06-.54l1-.57a1,1,0,0,1,.94,0l3,1.74c.24.14.21.38-.07.54l-1,.57A1,1,0,0,1,818.58,628.9Z"/><path class="cls-74" d="M823.18,631.56l-3-1.74c-.24-.14-.21-.38.07-.54l1-.57a1,1,0,0,1,.94,0l3,1.74c.24.14.21.38-.07.54l-1,.57A1.07,1.07,0,0,1,823.18,631.56Z"/><path class="cls-74" d="M848.9,646.41l-3-1.74c-.24-.14-.21-.38.07-.54l1-.57a1.07,1.07,0,0,1,.95,0l3,1.74c.24.14.21.38-.07.54l-1,.57A1,1,0,0,1,848.9,646.41Z"/><path class="cls-74" d="M853.51,649.07l-3-1.74c-.24-.14-.21-.38.07-.54l1-.57a1,1,0,0,1,.94,0l3,1.74c.25.13.22.38-.06.54l-1,.57A1,1,0,0,1,853.51,649.07Z"/><path class="cls-74" d="M858.11,651.73l-3-1.74c-.24-.14-.21-.38.07-.54l1-.57a1,1,0,0,1,.94,0l3,1.73c.24.14.21.39-.07.55l-1,.57A1.06,1.06,0,0,1,858.11,651.73Z"/><path class="cls-74" d="M862.72,654.39l-3-1.74c-.24-.14-.21-.38.07-.55l1-.56a1,1,0,0,1,1,0l3,1.73c.24.14.21.39-.07.55l-1,.57A1,1,0,0,1,862.72,654.39Z"/><path class="cls-74" d="M817.1,633.54l-3-1.74c-.25-.14-.22-.38.06-.54l3-1.73a1,1,0,0,1,.94,0l3,1.74c.24.14.21.39-.07.55l-3,1.72A1,1,0,0,1,817.1,633.54Z"/><path class="cls-74" d="M821.74,636.22l-3-1.74c-.24-.14-.21-.38.07-.54l3-1.72a1.07,1.07,0,0,1,1,0l3,1.74c.24.14.21.38-.07.54l-3,1.72A1.06,1.06,0,0,1,821.74,636.22Z"/><path class="cls-74" d="M826.39,638.91l-3-1.74c-.24-.14-.21-.38.07-.55l3-1.72a1.07,1.07,0,0,1,1,0l3,1.74c.24.14.21.38-.07.55l-3,1.72A1.06,1.06,0,0,1,826.39,638.91Z"/><path class="cls-74" d="M831,641.59l-3-1.74c-.24-.14-.21-.38.07-.54l3-1.72a1,1,0,0,1,.95,0l3,1.74c.24.13.21.38-.07.54l-3,1.72A1.07,1.07,0,0,1,831,641.59Z"/><path class="cls-74" d="M835.69,644.28l-3-1.74c-.24-.14-.21-.39.07-.55l3-1.72a1.06,1.06,0,0,1,.95,0l3,1.74c.24.14.21.38-.07.54l-3,1.73A1.1,1.1,0,0,1,835.69,644.28Z"/><path class="cls-74" d="M840.34,647l-3-1.74c-.24-.14-.21-.38.07-.54l3-1.73a1,1,0,0,1,.94,0l3,1.73c.25.14.22.39-.06.55l-3,1.72A1,1,0,0,1,840.34,647Z"/><path class="cls-74" d="M845,649.64l-3-1.73c-.24-.14-.21-.39.07-.55l3-1.72a1,1,0,0,1,.94,0l3,1.74c.25.14.22.38-.06.54l-3,1.72A1,1,0,0,1,845,649.64Z"/><path class="cls-74" d="M849.64,652.33l-3-1.74c-.24-.14-.21-.38.07-.54l3-1.73a1,1,0,0,1,.94,0l3,1.74c.24.14.21.39-.06.55l-3,1.72A1,1,0,0,1,849.64,652.33Z"/><path class="cls-74" d="M854.29,655l-3-1.74c-.24-.14-.21-.38.07-.54l3-1.72a1,1,0,0,1,.94,0l3,1.74c.24.14.21.38-.07.54l-3,1.72A1,1,0,0,1,854.29,655Z"/><path class="cls-74" d="M790.52,633.87l-8.87-5.12c-.24-.14-.21-.38.07-.54l3-1.73a1,1,0,0,1,.94,0l8.87,5.11c.24.14.21.39-.07.55l-3,1.72A1,1,0,0,1,790.52,633.87Z"/><path class="cls-74" d="M847.63,666.85l-8.86-5.12c-.25-.14-.22-.39.06-.55l3-1.72a1,1,0,0,1,.94,0l8.87,5.12c.24.14.21.38-.07.54l-3,1.73A1.08,1.08,0,0,1,847.63,666.85Z"/><path class="cls-74" d="M829,662l-3-1.74c-.24-.14-.21-.38.07-.54l3.55-2a1,1,0,0,1,.94,0l3,1.73c.24.14.21.39-.06.55L830,662A1,1,0,0,1,829,662Z"/><path class="cls-74" d="M795.28,642.55l-4.82-2.78c-.24-.14-.21-.39.07-.55l3.55-2.05a1.06,1.06,0,0,1,.95,0l4.81,2.78c.24.14.21.39-.07.55l-3.55,2A1,1,0,0,1,795.28,642.55Z"/><path class="cls-76" d="M824.56,659.45l-4.82-2.78c-.24-.14-.21-.38.07-.54l3.56-2a1,1,0,0,1,.94,0l4.81,2.78c.25.14.22.38-.06.54l-3.56,2A1,1,0,0,1,824.56,659.45Z"/><path class="cls-74" d="M802,646.42l-4.81-2.78c-.24-.14-.21-.38.07-.54l3.55-2.06a1,1,0,0,1,.94,0l4.82,2.78c.24.13.21.38-.07.54l-3.55,2A1.06,1.06,0,0,1,802,646.42Z"/><path class="cls-74" d="M801.77,641l20.93,12.09a.28.28,0,0,1,0,.54l-3.62,2.09a1,1,0,0,1-.94,0L797.2,643.66Z"/><path class="cls-74" d="M842,666.91l3.36,1.93c.19.12.17.32-.06.45l-1.45.84a.89.89,0,0,1-.78,0l-3.35-1.94c-.2-.11-.17-.31.06-.44l1.45-.84A.84.84,0,0,1,842,666.91Z"/><path class="cls-74" d="M837.34,664.2l3.36,1.94c.2.11.17.31-.06.44l-1.45.84a.84.84,0,0,1-.77,0l-3.36-1.93c-.2-.12-.17-.32.06-.45l1.45-.84A.87.87,0,0,1,837.34,664.2Z"/><path class="cls-74" d="M832.7,661.52l3.35,1.93c.2.12.17.32-.06.45l-1.45.84a.87.87,0,0,1-.77,0l-3.36-1.94c-.19-.11-.17-.31.06-.44l1.45-.84A.86.86,0,0,1,832.7,661.52Z"/><path class="cls-74" d="M839.91,662.72l3.36,1.93c.19.12.17.32-.06.45l-1.45.84a.86.86,0,0,1-.78,0L837.63,664c-.2-.12-.17-.32.06-.45l1.45-.84A.84.84,0,0,1,839.91,662.72Z"/><polygon class="cls-27" points="835.38 678.99 835.38 683.35 878.6 657.81 878.6 653.94 835.38 678.99"/><polygon class="cls-27" points="761.87 636.73 761.87 640.8 835.38 683.35 835.38 678.99 761.87 636.73"/><path class="cls-77" d="M788,637.88l9-2.33,5.56-4.37s-.19-1.77-2.56-.55l-4.06,1.73,3-4.57,4.46-1.54s.09-.65-2.54-.92a7.27,7.27,0,0,0-7.29.66,104.41,104.41,0,0,0-9.81,8.08Z"/><path class="cls-16" d="M762,644.3s17.44-9.58,21.55-11.91,5.62,5.7,5.62,5.7-3.47,9.75-10.84,13.72-12.14,10.36-17.52,7.12S762,644.3,762,644.3Z"/><path class="cls-78" d="M811.7,739.61c3,0,4.56-2.52,10.13-.13,7.37,3.16-3.07,9.78-7.16,9.41s-6.68.19-9.65,2.05-4.77,4.88-9,4.08c-4.67-.87-4.83-4.37-4.52-6.13a19.71,19.71,0,0,1,2.23-4.64s-1.25,1.42,3,1.73,4.65-.68,6.28-1.62S808.73,739.61,811.7,739.61Z"/><path class="cls-79" d="M811.7,736.84c3,0,4.56-2.51,10.13-.12,7.37,3.15-3.07,9.78-7.16,9.41s-6.68.18-9.65,2-4.77,4.88-9,4.09c-4.67-.87-4.83-4.37-4.52-6.13a19.5,19.5,0,0,1,2.23-4.64s-1.25,1.42,3,1.73,4.65-.69,6.28-1.63S808.73,736.84,811.7,736.84Z"/><path class="cls-79" d="M804.21,672.15s3.84.87,4.58,3.72-5.45,40.11-4.58,47.42,2.63,9.45,3.67,12.4-3.76,7.6-9.61,7.78-6.91-3.59-6.91-3.59.72-10-2-16.22-5.32-14.86-3.46-20.43S786.38,672.15,804.21,672.15Z"/><path class="cls-78" d="M826.19,746.5s3.15,1.8,4.95,1.92,8.17-2.73,9.72-1.86a6.49,6.49,0,0,1,3.22,6.3c-.44,3.1-3.78,7.51-9.78,7.88s-9.38.28-11.85,1.52-7.76,2.24-9.88,1.07c-3.72-2-2.18-6.18-2.24-6.37s2.36-5.38,2.36-5.38Z"/><path class="cls-79" d="M826.19,745s3.15,1.8,4.95,1.92,8.17-1.24,9.72-.37,2.66,2.29,2.23,5.39-2.79,6.93-8.79,7.3-8.67-.12-11.15,1.12-8.66,2.41-10.58.92a7,7,0,0,1-2.24-4.33c-.05-.18,2.36-6.87,2.36-6.87Z"/><path class="cls-79" d="M828,690.23l3.71-2.14s-.86,14.53-.61,19.72-5.2,26.74-5.2,30.46a33.85,33.85,0,0,0,.86,7.18s-4.08,7.31-9.53,6.94-5.94-.67-6.33-.89,1.39-16.86,0-23.14c-2-9.16,2-24.51,4.1-28.6S828,690.23,828,690.23Z"/><path class="cls-79" d="M786.67,754.28a2.62,2.62,0,0,0,1.28-2.64l-8.59-59.32c-.76-5.22-5-6.94-10-4.07l-24,13.89c-5,2.87-9.22,9.5-10,15.59L727,784.81a2.1,2.1,0,0,0,3.15,2.08,2.68,2.68,0,0,0,1.38-2l8-68.29a15.83,15.83,0,0,1,7-11L768.3,693c3.52-2,6.5-.8,7,2.88l8.09,56.89a2.11,2.11,0,0,0,3.15,1.53Z"/><path class="cls-28" d="M833.21,715c2.94-1.7-46.84-27-49.21-29-.89-.74-3.08-1.75-4.32-1-3.72,2.23-45.37,25.15-50.27,29s-.94,8.3,1.6,9.13,46.44,33.51,51,24.64C788.57,734.82,822.51,721.16,833.21,715Z"/><path class="cls-74" d="M780.27,748.78c-2.94,1.7-5.26,0-4.7-3.65a4.34,4.34,0,0,1,2-3.34c3.72-2.06,45.37-27.24,50.27-29s11.25,6,8.71,9.76-2.51-3-10.7.77C819.27,726.35,791,742.61,780.27,748.78Z"/><path class="cls-79" d="M839.33,783.8a1.31,1.31,0,0,0,.65-1.33l-8.72-60.18c-.76-5.22-5-6.95-10-4.07l-24,13.88c-5,2.88-9.22,9.5-10,15.59l-8.41,67.82a1.73,1.73,0,0,0,2.59,1.72l1.3-.75a1.32,1.32,0,0,0,.65-1l8.12-68.93a15.85,15.85,0,0,1,7-11L820.2,723c3.52-2,6.5-.81,7,2.87l8.16,57.44a1.73,1.73,0,0,0,2.59,1.26Z"/><path class="cls-79" d="M753,694.31s15.11-12.25,25.51-16.09,23.77-8.3,28.1-6.07,4,8.07,1.13,10.78S769.91,712,769.91,712s-13.37,13.37-19.19,12.38-8.54-5.82-10.15-12.63,0-16.34,0-16.34Z"/><path class="cls-79" d="M769.54,700.38c.39-.22,36.16-21.91,53.74-18.32s2.61,17.45,1.12,18.82-27.25,16.83-30,21-15,11.77-21.79,11.77-16-4.71-18.33-6.57a31,31,0,0,0-5.79-3.34S765.66,702.62,769.54,700.38Z"/><path class="cls-80" d="M782.29,686.14c-.75,6.82-3.85,12.38-2.6,16.72s2.82,8.16-5.7,10.65a13.31,13.31,0,0,1-3,.41c-8.82.33-21.9-6.58-26.1-10.81-4.73-4.73-4.34-7.68-4.34-7.68s-5.31-17.34-5.09-21.18.25-6.44.25-6.44-8.85-21.4.5-28.09a10.87,10.87,0,0,1,6.36-2.21,9.62,9.62,0,0,1,5.92,2l1-5.66,17.09,4.46s-1.16,8.36.7,10.82a4.47,4.47,0,0,0,1.15,1c2.71,1.8,8.33,3.45,11,7.52a8,8,0,0,1,.75,1.46C782.53,665.21,783,679.33,782.29,686.14Z"/><path class="cls-81" d="M782.29,686.14c-.75,6.82-3.85,12.38-2.6,16.72s2.82,8.16-5.7,10.65a13.31,13.31,0,0,1-3,.41c-1.08-3.57-5-17-4.81-20.26a6.73,6.73,0,0,1,3.18-5.41s-7.44-20.66,1.93-27.36C773.64,659.24,783,679.33,782.29,686.14Z"/><path class="cls-77" d="M745.79,644.49c2.27,10.23,15.21,7.85,17.56,6.49a8,8,0,0,1,5.08-.81,4.47,4.47,0,0,1-1.15-1c-1.86-2.47-.7-10.82-.7-10.82l-17.09-4.46-1,5.66S745.33,642.43,745.79,644.49Z"/><path class="cls-77" d="M770.84,613s2.73,5.2,2.29,7.68-1.17.93-.43,2.91,1.24,1.3.8,5.07,1.37,4.58-.31,6-6.61,3.71-6.61,3.71-11.4.62-15.18-2.23-8.66-7.8-7.73-15.6,7.86-11.39,12.56-11.88S765.7,605.79,770.84,613Z"/><path class="cls-82" d="M764.83,607.09c.34.14,4.64.12,5.63,2.72a37.67,37.67,0,0,0,2.62,5c.62,1.3-2.86,12-4,13.69s.43,2.85-.37,2.91-2.48-1.73-2.48-1.73-1,5.18-1,6.29-4.2,5.5-8.34,6.49-8-2.93-8-2.93-13.51-9.51-5-24.2C749,606.47,757.9,604.18,764.83,607.09Z"/><path class="cls-77" d="M767.93,631.05s-2.72-3-4.08-1.36-2.11,4-.25,5.26,3.34,1.42,4.09.68-.93-.56-1.55-1.74S767.93,631.05,767.93,631.05Z"/><path class="cls-83" d="M745.59,642.34l2.92-2.79s-1.43,4.7,9.9,6.15c5,.64,6.7-1.65,7.85-.76s3.74,6.11,3.74,6.11-8.39,2.25-14.65,1.33S744.82,647.57,745.59,642.34Z"/><path class="cls-28" d="M712.09,676.53c.27.65.95,1.06,2.36,1.63,2.54,1,4.22,8.65,4.9,13.83,1,7.62,3.13,19.63,4,24.4.09.48,8.08,10.32,19.19,16.83,12.15,7.13,27.52,10.95,28,10.41L765,703.77l-1.84-1.2-3.89,1.2Z"/><path class="cls-74" d="M712.09,676.53a90.43,90.43,0,0,0,17.56,16.66c12.47,8.86,29.62,10.58,29.62,10.58l8-2.48s-18-5.38-31.27-13.23a58.27,58.27,0,0,1-15.91-14c-2-2.57-7.67-2-8,.27A4.35,4.35,0,0,0,712.09,676.53Z"/><path class="cls-74" d="M759.28,701.56c-.37,2.29-.19,2.81,2.35,3.84s4.22,8.65,4.9,13.83c1,7.62,3.13,19.64,4,24.4.18,1,1.26,1,2.15,0l1.84-2.15a3.08,3.08,0,0,0,.79-2.27c-1.06-6.18-6.16-35.58-8-37.88C765.26,698.72,759.64,699.27,759.28,701.56Z"/><path class="cls-77" d="M822.77,656.91l3.15-7.94,4.06-2.84a2.36,2.36,0,0,1-.43,3.38l-1.49,2,6-3.58,7.12-.86s5,2.09,3.15,4.4a73.58,73.58,0,0,1-5.77,6l-13.49,4.89Z"/><path class="cls-16" d="M800.47,666.6S817.91,657,822,654.69s5.62,5.7,5.62,5.7-3.46,9.75-10.84,13.72-12.14,10.36-17.51,7.12S800.47,666.6,800.47,666.6Z"/><path class="cls-16" d="M765.72,669.37s-1.06-4.76,1.58-7.72a8.69,8.69,0,0,1,9.75-2.74c3.67,1.28,15.5,4.74,15.5,4.74s12.66-3.31,18,8.24c3.61,7.81-10.57,11.05-10.57,11.05s-25.88-1.94-29.43-4.29S765.72,669.37,765.72,669.37Z"/><polygon class="cls-74" points="878.6 657.81 878.6 744.04 849.15 761.27 849.15 675.21 878.6 657.81"/></svg>